# xmcd
#
# Track frame offsets: 
#        150
#        18344
#        37931
#        57704
#        75507
#        96196
#        116254
#        132602
#        154190
#        174259
#        194476
#        215375
#        233391
#        254741
#        276407
#        297503
#        316815
#        336016
#
# Disc length: 4700 seconds
#
# Revision: 0
# Processed by: cddbd v1.5.2PL0 Copyright (c) Steve Scherf et al.
# Submitted via: ExactAudioCopy v1.0b1
#
DISCID=02125a12
DTITLE=Various Artist - 天籟之愛藏歌魂 Disc 1
DYEAR=2011
DGENRE=藏歌
TTITLE0=天籟之愛
TTITLE1=我為姑娘唱首歌
TTITLE2=為你等待
TTITLE3=大高原
TTITLE4=天堂里的阿媽
TTITLE5=雪山下的情歌
TTITLE6=林芝姑娘
TTITLE7=牧人之歌
TTITLE8=騎車到拉蕯
TTITLE9=天邊的西藏
TTITLE10=我要去西藏
TTITLE11=你是我ー生最愛的人
TTITLE12=夢中的緑洲
TTITLE13=我的九寨
TTITLE14=套馬杆
TTITLE15=極地拉蕯
TTITLE16=多彩的哈達
TTITLE17=我從草原來
EXTD=
EXTT0=
EXTT1=
EXTT2=
EXTT3=
EXTT4=
EXTT5=
EXTT6=
EXTT7=
EXTT8=
EXTT9=
EXTT10=
EXTT11=
EXTT12=
EXTT13=
EXTT14=
EXTT15=
EXTT16=
EXTT17=
PLAYORDER=
